#!OML:ASF H:\Dans Jumps\Project 1\Capture day 1\Session 1\subject.ASF
:FULLY-SPECIFIED
:DEGREES
284
root 0.683845 17.6086 -14.8265 11.0213 -1.43333 -0.812383
lowerback 3.00316 -0.10921 -0.221205
upperback 6.38933 -0.203909 1.45658
thorax 4.92425 -0.154139 1.62848
lowerneck -11.9116 0.594634 -2.09797
upperneck 34.7513 0.906351 1.45078
head 13.7359 0.304266 1.08441
rclavicle -5.06901e-015 -1.55052e-014
rhumerus -18.6302 7.83686 -91.1659
rradius 33.622
rwrist 24.1518
rhand -15.5435 -25.8452
rfingers 7.12502
rthumb 10.6405 -55.5558
lclavicle -5.06901e-015 -1.55052e-014
lhumerus -18.4035 -26.5808 97.8787
lradius 26.9079
lwrist 13.1241
lhand -25.9069 -2.57918
lfingers 7.12502
lthumb 0.635667 27.3996
rfemur -24.2047 -2.48812 19.1075
rtibia 26.2492
rfoot -11.9602 -4.48298
rtoes 12.0978
lfemur -22.6582 6.72049 -20.2405
ltibia 22.6996
lfoot -9.38287 5.51998
ltoes 7.53797
285
root 0.681396 17.6121 -14.8218 11.004 -1.42965 -0.806475
lowerback 2.94902 -0.113488 -0.215761
upperback 6.37444 -0.209473 1.44936
thorax 4.93931 -0.156431 1.61777
lowerneck -11.8984 0.588036 -2.10321
upperneck 34.6538 0.892458 1.46596
head 13.6896 0.300449 1.08787
rclavicle 0 -1.59028e-015
rhumerus -18.7527 8.23707 -91.254
rradius 33.6538
rwrist 24.3096
rhand -15.3722 -25.8619
rfingers 7.12502
rthumb 10.8057 -55.5639
lclavicle 0 -1.59028e-015
lhumerus -18.448 -26.489 97.8826
lradius 26.8532
lwrist 13.2322
lhand -26.0173 -2.62106
lfingers 7.12502
lthumb 0.529021 27.358
rfemur -24.0996 -2.50588 19.1085
rtibia 26.1206
rfoot -11.9241 -4.45531
rtoes 12.1413
lfemur -22.541 6.70066 -20.2302
ltibia 22.5513
lfoot -9.33872 5.52589
ltoes 7.55789
286
root 0.679083 17.6144 -14.8176 10.9777 -1.42708 -0.804759
lowerback 2.90198 -0.114447 -0.201364
upperback 6.36497 -0.210661 1.44189
thorax 4.9559 -0.156143 1.60187
lowerneck -11.8832 0.576751 -2.11883
upperneck 34.5741 0.870876 1.49175
head 13.651 0.293212 1.0965
rclavicle 1.39149e-015 6.36111e-015
rhumerus -18.8549 8.58034 -91.3248
rradius 33.6584
rwrist 24.5043
rhand -15.2769 -25.8369
rfingers 7.12502
rthumb 10.8976 -55.5341
lclavicle 1.39149e-015 6.36111e-015
lhumerus -18.4748 -26.4412 97.8753
lradius 26.7981
lwrist 13.4599
lhand -26.173 -2.72044
lfingers 7.12502
lthumb 0.378614 27.259
rfemur -24.0063 -2.52676 19.1145
rtibia 26.0278
rfoot -11.8987 -4.42515
rtoes 12.1755
lfemur -22.4411 6.68912 -20.2165
ltibia 22.4508
lfoot -9.3149 5.53109
ltoes 7.57339
287
root 0.676807 17.6156 -14.814 10.9447 -1.42446 -0.805339
lowerback 2.86236 -0.113739 -0.183451
upperback 6.36131 -0.209718 1.43546
thorax 4.97433 -0.154691 1.58514
lowerneck -11.8719 0.560937 -2.14745
upperneck 34.5143 0.842827 1.52766
head 13.6222 0.282653 1.11082
rclavicle -2.68359e-015 -2.5842e-015
rhumerus -18.9332 8.86456 -91.3755
rradius 33.6142
rwrist 24.7843
rhand -15.3241 -25.7263
rfingers 7.12502
rthumb 10.8521 -55.4259
lclavicle -2.68359e-015 -2.5842e-015
lhumerus -18.4807 -26.4241 97.8541
lradius 26.7482
lwrist 13.7679
lhand -26.3664 -2.87106
lfingers 7.12502
lthumb 0.191912 27.1086
rfemur -23.9271 -2.54807 19.1237
rtibia 25.9705
rfoot -11.8847 -4.39785
rtoes 12.1963
lfemur -22.3607 6.68561 -20.2017
ltibia 22.3963
lfoot -9.30909 5.53476
ltoes 7.57779
288
root 0.674498 17.6157 -14.811 10.9036 -1.4235 -0.812507
lowerback 2.83414 -0.111323 -0.158088
upperback 6.36225 -0.206595 1.43073
thorax 4.99108 -0.151859 1.56606
lowerneck -11.8555 0.547783 -2.17641
upperneck 34.4692 0.819271 1.56192
head 13.5987 0.273651 1.12535
rclavicle -6.55989e-015 1.2921e-014
rhumerus -18.9915 9.09556 -91.4087
rradius 33.5246
rwrist 25.1264
rhand -15.5142 -25.5485
rfingers 7.12502
rthumb 10.6688 -55.2577
lclavicle -6.55989e-015 1.2921e-014
lhumerus -18.4684 -26.4276 97.8192
lradius 26.6927
lwrist 14.0948
lhand -26.6111 -3.1593
lfingers 7.12502
lthumb -0.0445193 26.8204
rfemur -23.8582 -2.5639 19.1402
rtibia 25.9464
rfoot -11.881 -4.37716
rtoes 12.1976
lfemur -22.2972 6.69162 -20.1803
ltibia 22.3881
lfoot -9.32032 5.5378
ltoes 7.56637
289
root 0.672187 17.6147 -14.8087 10.8546 -1.4242 -0.821114
lowerback 2.81681 -0.108011 -0.1337
upperback 6.36922 -0.202379 1.42814
thorax 5.00801 -0.148618 1.54979
lowerneck -11.8433 0.535834 -2.20596
upperneck 34.4429 0.798906 1.59281
head 13.5845 0.265353 1.13941
rclavicle -5.36719e-015 5.96354e-016
rhumerus -19.029 9.27918 -91.4224
rradius 33.4053
rwrist 25.5076
rhand -15.7942 -25.3432
rfingers 7.12502
rthumb 10.3987 -55.0661
lclavicle -5.36719e-015 5.96354e-016
lhumerus -18.4364 -26.4186 97.7662
lradius 26.6414
lwrist 14.3506
lhand -26.8941 -3.49382
lfingers 7.12502
lthumb -0.317761 26.4857
rfemur -23.8008 -2.57578 19.1581
rtibia 25.955
rfoot -11.8877 -4.3617
rtoes 12.1864
lfemur -22.2494 6.70362 -20.1582
ltibia 22.4202
lfoot -9.34333 5.54086
ltoes 7.54416
290
root 0.669809 17.6127 -14.8071 10.7981 -1.42898 -0.835374
lowerback 2.81195 -0.103995 -0.107966
upperback 6.38074 -0.197373 1.42942
thorax 5.02268 -0.145041 1.53683
lowerneck -11.8273 0.530358 -2.22689
upperneck 34.4283 0.790779 1.60869
head 13.5744 0.261394 1.14791
rclavicle 2.48481e-015 -4.57205e-015
rhumerus -19.0469 9.42563 -91.4195
rradius 33.2692
rwrist 25.8678
rhand -16.0948 -25.1679
rfingers 7.12502
rthumb 10.1087 -54.905
lclavicle 2.48481e-015 -4.57205e-015
lhumerus -18.388 -26.3681 97.6952
lradius 26.5892
lwrist 14.4655
lhand -27.1883 -3.84666
lfingers 7.12502
lthumb -0.601977 26.1322
rfemur -23.7551 -2.57852 19.1817
rtibia 25.9943
rfoot -11.9033 -4.35366
rtoes 12.1572
lfemur -22.2159 6.72043 -20.1298
ltibia 22.4892
lfoot -9.37603 5.54765
ltoes 7.50934
291
root 0.667366 17.6098 -14.8063 10.7325 -1.44068 -0.84321
lowerback 2.81743 -0.0983725 -0.0942912
upperback 6.39906 -0.190227 1.43128
thorax 5.03868 -0.141034 1.53129
lowerneck -11.811 0.530823 -2.23934
upperneck 34.4258 0.792439 1.61468
head 13.5696 0.261365 1.15257
rclavicle 2.98177e-016 5.1684e-015
rhumerus -19.0418 9.53499 -91.4
rradius 33.1382
rwrist 26.1594
rhand -16.3139 -25.0648
rfingers 7.12502
rthumb 9.89729 -54.8121
lclavicle 2.98177e-016 5.1684e-015
lhumerus -18.3231 -26.2768 97.6069
lradius 26.5368
lwrist 14.439
lhand -27.4741 -4.16747
lfingers 7.12502
lthumb -0.877994 25.8105
rfemur -23.7186 -2.57519 19.1973
rtibia 26.0624
rfoot -11.9277 -4.3493
rtoes 12.1132
lfemur -22.1922 6.74243 -20.1088
ltibia 22.5898
lfoot -9.41591 5.55761
ltoes 7.46041
292
root 0.664918 17.6059 -14.8062 10.6596 -1.4539 -0.852034
lowerback 2.83058 -0.0925178 -0.082986
upperback 6.4233 -0.182878 1.43545
thorax 5.0566 -0.137142 1.52951
lowerneck -11.7992 0.534975 -2.24123
upperneck 34.4378 0.801199 1.60778
head 13.5721 0.263958 1.15153
rclavicle 2.38542e-015 1.98785e-015
rhumerus -19.0119 9.60655 -91.3659
rradius 33.013
rwrist 26.3473
rhand -16.4309 -25.0435
rfingers 7.12502
rthumb 9.78441 -54.7962
lclavicle 2.38542e-015 1.98785e-015
lhumerus -18.2477 -26.1446 97.5045
lradius 26.4919
lwrist 14.2955
lhand -27.7281 -4.41715
lfingers 7.12502
lthumb -1.12333 25.5596
rfemur -23.6904 -2.57177 19.2146
rtibia 26.1552
rfoot -11.9609 -4.3472
rtoes 12.0574
lfemur -22.1776 6.75894 -20.085
ltibia 22.7173
lfoot -9.46016 5.57643
ltoes 7.40561
